<?xml version="1.0" encoding="UTF-8"?>
<svg xmlns="http://www.w3.org/2000/svg" viewBox="0 0 800 500" width="800" height="500">
  <defs>
    <pattern id="grid" width="20" height="20" patternUnits="userSpaceOnUse">
      <path d="M 20 0 L 0 0 0 20" fill="none" stroke="#00c8ff" stroke-opacity="0.08" stroke-width="0.5"/>
    </pattern>
    <marker id="arrow" markerWidth="8" markerHeight="8" refX="6" refY="3" orient="auto">
      <path d="M0,0 L6,3 L0,6 Z" fill="#00c8ff"/>
    </marker>
  </defs>
  <rect width="800" height="500" fill="#001228"/>
  <rect width="800" height="500" fill="url(#grid)"/>
  <rect x="30" y="30" width="740" height="440" rx="4" fill="none" stroke="#00c8ff" stroke-opacity="0.3" stroke-width="1.5" stroke-dasharray="8 4"/>
  <text x="50" y="65" fill="#00c8ff" font-family="Courier New, monospace" font-size="11">HYTRAK RAIL CORP - PATENTED INVERTED BOGIE SYSTEM</text>
  <text x="50" y="82" fill="#5a8ab0" font-family="Courier New, monospace" font-size="10">DWG NO. HT-BG-001 - GRAVITY-AUGMENTED WHEEL ASSEMBLY - SCALE 1:20</text>
  <line x1="50" y1="90" x2="750" y2="90" stroke="#00c8ff" stroke-opacity="0.2"/>
  <rect x="200" y="110" width="400" height="28" rx="4" fill="none" stroke="#00c8ff" stroke-width="2"/>
  <text x="400" y="130" text-anchor="middle" fill="#00c8ff" font-family="Courier New, monospace" font-size="10">INVERTED RAIL BEAM</text>
  <rect x="280" y="155" width="240" height="60" rx="6" fill="none" stroke="#00c8ff" stroke-width="1.5" stroke-dasharray="4 2"/>
  <text x="400" y="190" text-anchor="middle" fill="#7ab0d4" font-family="Courier New, monospace" font-size="9">BOGIE FRAME</text>
  <line x1="400" y1="138" x2="400" y2="155" stroke="#00c8ff" stroke-width="1.5" marker-end="url(#arrow)"/>
  <text x="415" y="150" fill="#00c8ff" font-family="Courier New, monospace" font-size="9">GRAVITY LOAD</text>
  <g stroke="#00c8ff" stroke-width="2" fill="none">
    <circle cx="320" cy="240" r="22"/>
    <circle cx="320" cy="240" r="8" fill="#001228" stroke="#00c8ff"/>
    <circle cx="480" cy="240" r="22"/>
    <circle cx="480" cy="240" r="8" fill="#001228" stroke="#00c8ff"/>
  </g>
  <text x="320" y="275" text-anchor="middle" fill="#5a8ab0" font-family="Courier New, monospace" font-size="8">GUIDE WHEEL</text>
  <text x="480" y="275" text-anchor="middle" fill="#5a8ab0" font-family="Courier New, monospace" font-size="8">GUIDE WHEEL</text>
  <path d="M250 280 L550 280 L520 380 L280 380 Z" fill="none" stroke="#00c8ff" stroke-width="2"/>
  <text x="400" y="340" text-anchor="middle" fill="#00c8ff" font-family="Courier New, monospace" font-size="11">PRIVATE POD CAR</text>
  <line x1="320" y1="215" x2="300" y2="280" stroke="#00c8ff" stroke-width="1" stroke-dasharray="3 2"/>
  <line x1="480" y1="215" x2="500" y2="280" stroke="#00c8ff" stroke-width="1" stroke-dasharray="3 2"/>
  <line x1="200" y1="400" x2="600" y2="400" stroke="#5a8ab0" stroke-width="0.75"/>
  <line x1="200" y1="395" x2="200" y2="405" stroke="#5a8ab0"/>
  <line x1="600" y1="395" x2="600" y2="405" stroke="#5a8ab0"/>
  <text x="400" y="418" text-anchor="middle" fill="#5a8ab0" font-family="Courier New, monospace" font-size="9">400mm WHEEL SPAN</text>
  <rect x="560" y="130" width="180" height="70" rx="4" fill="#001a40" stroke="#00c8ff" stroke-opacity="0.4"/>
  <text x="575" y="152" fill="#00c8ff" font-family="Courier New, monospace" font-size="9">KEY INNOVATION:</text>
  <text x="575" y="168" fill="#7ab0d4" font-family="Courier New, monospace" font-size="8">Cars hang BELOW rail.</text>
  <text x="575" y="182" fill="#7ab0d4" font-family="Courier New, monospace" font-size="8">Gravity increases grip.</text>
  <text x="575" y="196" fill="#7ab0d4" font-family="Courier New, monospace" font-size="8">Derailment-resistant.</text>
  <rect x="60" y="300" width="160" height="55" rx="4" fill="#001a40" stroke="#00c8ff" stroke-opacity="0.4"/>
  <text x="75" y="322" fill="#00c8ff" font-family="Courier New, monospace" font-size="9">SACRIFICIAL</text>
  <text x="75" y="336" fill="#7ab0d4" font-family="Courier New, monospace" font-size="8">Rubber contact wheels</text>
  <text x="75" y="350" fill="#7ab0d4" font-family="Courier New, monospace" font-size="8">Minimal rail wear</text>
</svg>
