<?xml version="1.0" encoding="UTF-8"?>
<svg xmlns="http://www.w3.org/2000/svg" viewBox="0 0 800 500" width="800" height="500">
  <defs>
    <linearGradient id="podBg" x1="0%" y1="0%" x2="100%" y2="100%">
      <stop offset="0%" stop-color="#0a1a3a"/>
      <stop offset="100%" stop-color="#001f5b"/>
    </linearGradient>
    <linearGradient id="seatGrad" x1="0%" y1="0%" x2="0%" y2="100%">
      <stop offset="0%" stop-color="#1a3a6a"/>
      <stop offset="100%" stop-color="#0d2248"/>
    </linearGradient>
    <linearGradient id="accentGlow" x1="0%" y1="0%" x2="100%" y2="0%">
      <stop offset="0%" stop-color="#00c8ff" stop-opacity="0"/>
      <stop offset="50%" stop-color="#00c8ff" stop-opacity="0.35"/>
      <stop offset="100%" stop-color="#00c8ff" stop-opacity="0"/>
    </linearGradient>
  </defs>
  <rect width="800" height="500" fill="url(#podBg)"/>
  <rect x="40" y="40" width="720" height="420" rx="28" fill="none" stroke="#00c8ff" stroke-opacity="0.25" stroke-width="2"/>
  <rect x="60" y="60" width="680" height="380" rx="20" fill="#061228" stroke="#1a3a6a" stroke-width="1"/>
  <path d="M60 120 Q400 40 740 120" fill="none" stroke="#00c8ff" stroke-opacity="0.15" stroke-width="1"/>
  <rect x="60" y="60" width="680" height="60" rx="20" fill="url(#accentGlow)" opacity="0.5"/>
  <path d="M120 80 L680 80 L640 200 L160 200 Z" fill="#0d2848" stroke="#00c8ff" stroke-opacity="0.3" stroke-width="1.5"/>
  <path d="M160 200 L640 200 L600 280 L200 280 Z" fill="#081830" opacity="0.8"/>
  <g fill="url(#seatGrad)" stroke="#00c8ff" stroke-opacity="0.2" stroke-width="1">
    <rect x="140" y="300" width="110" height="90" rx="12"/>
    <rect x="280" y="300" width="110" height="90" rx="12"/>
    <rect x="420" y="300" width="110" height="90" rx="12"/>
    <rect x="560" y="300" width="110" height="90" rx="12"/>
  </g>
  <g fill="#0d2248" stroke="#00c8ff" stroke-opacity="0.15">
    <rect x="145" y="290" width="100" height="25" rx="8"/>
    <rect x="285" y="290" width="100" height="25" rx="8"/>
    <rect x="425" y="290" width="100" height="25" rx="8"/>
    <rect x="565" y="290" width="100" height="25" rx="8"/>
  </g>
  <rect x="385" y="295" width="30" height="100" rx="6" fill="#001f5b" stroke="#00c8ff" stroke-opacity="0.25"/>
  <rect x="80" y="400" width="640" height="3" rx="1.5" fill="#00c8ff" opacity="0.4"/>
  <rect x="80" y="130" width="640" height="2" rx="1" fill="#00c8ff" opacity="0.2"/>
  <rect x="320" y="220" width="160" height="50" rx="8" fill="#001a40" stroke="#00c8ff" stroke-opacity="0.35"/>
  <text x="400" y="252" text-anchor="middle" fill="#00c8ff" font-family="Arial, sans-serif" font-size="14" font-weight="600">PRIVATE POD</text>
  <text x="400" y="470" text-anchor="middle" fill="#7a9cc4" font-family="Arial, sans-serif" font-size="13">4-PASSENGER PRIVATE CABIN - CONCEPT RENDER</text>
</svg>
